# xmcd
#
# Track frame offsets:
#	150
#	15218
#	27573
#	42838
#	57539
#	70932
#	84517
#	95160
#	107636
#	121661
#	137118
#	147685
#	162385
#	174013
#	188981
#
# Disc length: 2674 seconds
#
# Revision: 0
# Processed by: cddbd v1.5.2PL0 Copyright (c) Steve Scherf et al.
# Submitted via: EasyCDDAExtractor 11.1.0.1
#
DISCID=ce0a700f
DTITLE=Kenny Rogers - Kenny Rogers Special Edition
DYEAR=2008
DGENRE=country
TTITLE0=Conditions
TTITLE1=Ruben James
TTITLE2=For the good times
TTITLE3=All God's lonely children
TTITLE4=A stranger in my place
TTITLE5=I'm gonna sing you a sad song Suzy
TTITLE6=Last few threads of love
TTITLE7=Love woman
TTITLE8=Molly
TTITLE9=My washington woman
TTITLE10=Goodtime liberator
TTITLE11=After all
TTITLE12=What am I gonna do
TTITLE13=Tell it all brother
TTITLE14=Elvira
EXTD=
EXTT0=
EXTT1=
EXTT2=
EXTT3=
EXTT4=
EXTT5=
EXTT6=
EXTT7=
EXTT8=
EXTT9=
EXTT10=
EXTT11=
EXTT12=
EXTT13=
EXTT14=
PLAYORDER=
